<!-- <svg width="35" height="24" viewBox="0 0 34 24" fill="none" xmlns="http://www.w3.org/2000/svg">
<g transform="translate(0.000000,1080.000000) scale(0.100000,-0.100000)"
fill="#000000" stroke="none">
<path d="M1640 7605 l0 -205 3765 0 3765 0 0 205 0 205 -3765 0 -3765 0 0
-205z"/>
<path d="M2925 6819 c-38 -5 -114 -23 -168 -40 -259 -83 -423 -280 -467 -559
-6 -40 -10 -367 -10 -865 0 -896 1 -902 72 -1056 71 -152 168 -247 323 -319
134 -63 203 -75 410 -74 209 1 282 16 425 85 114 56 228 169 283 280 63 127
79 208 84 421 3 103 3 198 -1 211 -10 41 -43 47 -249 47 -153 0 -197 -3 -213
-15 -20 -13 -22 -26 -27 -177 -6 -196 -25 -270 -87 -340 -100 -114 -301 -126
-416 -25 -54 48 -81 97 -100 186 -18 85 -21 1461 -3 1557 32 173 135 264 300
264 125 0 208 -49 259 -153 36 -74 50 -161 50 -318 0 -99 3 -118 18 -132 16
-15 47 -17 225 -17 273 0 251 -22 244 244 -6 232 -21 308 -90 441 -139 268
-466 402 -862 354z"/>
<path d="M4276 6768 c-14 -20 -16 -170 -16 -1403 0 -1233 2 -1383 16 -1403 15
-22 20 -22 218 -22 177 0 205 2 217 17 12 13 15 189 19 1020 l5 1004 188 -983
c104 -541 193 -997 198 -1015 6 -17 17 -34 25 -37 9 -3 101 -6 205 -6 185 0
189 0 203 23 7 12 100 472 206 1022 105 550 194 1002 196 1004 2 2 4 -452 4
-1010 0 -776 3 -1018 12 -1027 9 -9 71 -12 220 -12 195 0 208 1 218 19 7 13
10 470 10 1409 0 1333 -1 1390 -18 1405 -16 15 -54 17 -333 17 -240 0 -319 -3
-333 -13 -13 -10 -56 -213 -202 -957 -101 -520 -186 -949 -188 -955 -5 -15 -3
-26 -197 965 -122 624 -185 931 -196 942 -15 16 -44 18 -339 18 -322 0 -323 0
-338 -22z"/>
<path d="M6827 6772 c-16 -17 -17 -130 -17 -1413 0 -1072 3 -1398 12 -1407 9
-9 78 -12 249 -12 234 0 238 0 253 22 14 20 16 92 16 585 l0 563 203 0 c298 0
450 26 617 107 171 82 287 230 334 423 40 166 44 402 10 569 -33 159 -103 294
-198 377 -68 60 -210 129 -326 158 -149 38 -283 46 -725 46 -386 0 -413 -1
-428 -18z m903 -403 c171 -37 235 -115 260 -316 26 -201 -18 -388 -107 -462
-68 -56 -144 -73 -355 -79 l-188 -4 0 442 0 443 168 -6 c92 -3 192 -11 222
-18z"/>
<path d="M1640 3190 l0 -210 3763 2 3762 3 3 208 2 207 -3765 0 -3765 0 0
-210z"/>
</g>
</svg> -->
<?xml version="1.0" standalone="no"?>
<!DOCTYPE svg PUBLIC "-//W3C//DTD SVG 20010904//EN"
 "http://www.w3.org/TR/2001/REC-SVG-20010904/DTD/svg10.dtd">
<svg version="1.0" xmlns="http://www.w3.org/2000/svg"
 width="50.000000pt" height="30.000000pt" viewBox="0 0 761.000000 500.000000"
 preserveAspectRatio="xMidYMid meet">

<g transform="translate(0.000000,500.000000) scale(0.100000,-0.100000)"
fill="#4884F3" stroke="none">
<path d="M40 4695 l0 -205 3760 0 3760 0 0 205 0 205 -3760 0 -3760 0 0 -205z"/>
<path d="M1353 3910 c-275 -28 -480 -157 -586 -367 -85 -171 -82 -132 -82
-1098 l0 -850 23 -79 c38 -135 87 -221 177 -312 157 -158 373 -227 659 -211
318 18 538 146 649 378 63 131 78 209 85 426 4 159 2 186 -12 208 l-16 25
-220 0 c-207 0 -220 -1 -230 -19 -5 -11 -10 -77 -10 -148 0 -204 -30 -304
-110 -377 -62 -56 -102 -70 -200 -70 -66 -1 -95 4 -131 20 -55 26 -111 81
-137 138 -41 87 -43 128 -40 916 l3 755 24 59 c57 142 185 212 341 184 108
-19 182 -83 222 -194 18 -49 22 -88 26 -227 4 -156 6 -168 25 -182 17 -12 62
-15 224 -15 259 0 243 -12 243 178 0 305 -47 471 -177 630 -77 94 -244 185
-393 215 -99 20 -255 27 -357 17z"/>
<path d="M2688 3869 c-17 -9 -18 -87 -18 -1414 0 -1378 0 -1404 19 -1415 26
-13 386 -13 412 0 19 10 19 33 19 1032 0 562 4 1018 8 1013 5 -6 96 -462 202
-1015 126 -661 197 -1011 208 -1022 13 -16 37 -18 202 -18 136 0 191 3 204 13
14 10 57 219 212 1022 106 555 196 1014 198 1019 2 6 5 -447 5 -1006 1 -910 3
-1018 17 -1032 23 -24 405 -24 428 0 14 14 16 155 16 1409 l0 1394 -22 15
c-19 14 -68 16 -335 16 -336 0 -336 0 -348 -53 -11 -52 -365 -1869 -366 -1880
-2 -42 -37 127 -199 963 -153 786 -185 938 -202 953 -18 15 -49 17 -332 17
-192 0 -318 -4 -328 -11z"/>
<path d="M5233 3865 l-23 -16 0 -1398 c0 -1073 3 -1400 12 -1409 18 -18 481
-17 497 1 8 10 12 183 13 583 l3 569 240 6 c266 7 383 25 524 79 316 122 447
394 420 869 -11 186 -62 341 -149 457 -70 92 -217 182 -361 219 -162 43 -212
46 -689 51 -419 5 -467 4 -487 -11z m842 -395 c155 -22 230 -67 275 -161 79
-168 59 -494 -37 -600 -76 -84 -170 -109 -415 -109 l-168 0 0 433 c0 239 3
437 7 440 10 11 259 8 338 -3z"/>
<path d="M40 285 l0 -205 3760 0 3760 0 0 205 0 205 -3760 0 -3760 0 0 -205z"/>
</g>
</svg>

